<svg xmlns="http://www.w3.org/2000/svg" viewBox="0 0 128 128">
  <defs>
    <radialGradient id="g" cx="40%" cy="35%" r="75%">
      <stop offset="0%" stop-color="#FF9EBB" stop-opacity="0.95"/>
      <stop offset="45%" stop-color="#B59BFF" stop-opacity="0.75"/>
      <stop offset="100%" stop-color="#0F0C16" stop-opacity="1"/>
    </radialGradient>
    <filter id="blur" x="-30%" y="-30%" width="160%" height="160%">
      <feGaussianBlur stdDeviation="2.2"/>
    </filter>
  </defs>
  <rect width="128" height="128" rx="28" fill="url(#g)"/>
  <g filter="url(#blur)" opacity="0.65">
    <circle cx="44" cy="48" r="28" fill="#FFB562"/>
  </g>
  <g fill="none" stroke="#FFFFFF" stroke-opacity="0.9" stroke-linecap="round" stroke-linejoin="round">
    <path d="M34 54l5-22 18 15" stroke-width="6"/>
    <path d="M94 54l-5-22-18 15" stroke-width="6"/>
    <path d="M28 72c0-20 16-34 36-34s36 14 36 34-16 36-36 36-36-16-36-36Z" stroke-width="6"/>
    <path d="M52 72h.01" stroke-width="10"/>
    <path d="M76 72h.01" stroke-width="10"/>
    <path d="M58 88c3 3 7 5 6 5s3-2 6-5" stroke-width="6"/>
  </g>
</svg>

